# xmcd CD database file
#
# Track frame offsets:
#	150
#	2645
#	22440
#	48693
#	68598
#	93843
#	114795
#	141775
#	164008
#	177535
#	216535
#	239805
#	263723
#
# Disc length: 3774 seconds
#
# Revision: 6
# Processed by: cddbd v1.5.2PL0 Copyright (c) Steve Scherf et al.
# Submitted via: CDex 1.70beta2
#
DISCID=c20ebc0d
DTITLE=orange pekoe - Modern Lights
DYEAR=2003
DGENRE=Pop
TTITLE0=Introduction
TTITLE1=極楽鳥 ～Bird of Paradise～
TTITLE2=夜明けの歌
TTITLE3=スウィート・ムービー
TTITLE4=蓮
TTITLE5=Beautiful Thing
TTITLE6=キセキ；
TTITLE7=Honeysuckle
TTITLE8=Birthday Song
TTITLE9=メトロ
TTITLE10=いとしさは､
TTITLE11=ひとつになれば
TTITLE12=虹
EXTD=YEAR: 2003
EXTT0=
EXTT1=
EXTT2=
EXTT3=
EXTT4=
EXTT5=
EXTT6=
EXTT7=
EXTT8=
EXTT9=
EXTT10=
EXTT11=
EXTT12=
PLAYORDER=
